<svg width="378" height="391" viewBox="0 0 378 391" fill="none" xmlns="http://www.w3.org/2000/svg">
<path d="M355.13 308.4C319.73 358.38 261.42 391 195.5 391C87.52 391 0 303.48 0 195.5C0 87.52 87.52 0 195.5 0C261.42 0 319.73 32.63 355.13 82.6C325.44 51.59 283.61 32.27 237.26 32.27C147.1 32.27 74.03 105.35 74.03 195.5C74.03 285.65 147.11 358.73 237.26 358.73C283.61 358.73 325.44 339.41 355.13 308.4Z" fill="#FFFFFF"/>
<path d="M261.52 139.28C286.55 151.81 305.33 175.9 309.89 205.68C317.37 254.46 283.89 300.06 235.1 307.54C186.31 315.02 140.72 281.54 133.24 232.75C128.68 202.97 139.38 174.37 159.51 154.92C147.55 170.48 141.72 190.72 144.93 211.66C151.17 252.39 189.24 280.35 229.98 274.1C270.72 267.85 298.67 229.79 292.42 189.05C289.21 168.11 277.58 150.55 261.52 139.28Z" fill="#FFFFFF"/>
<path d="M242.9 248.15C227.62 256.08 208.85 256.72 192.39 248.23C165.42 234.32 154.82 201.19 168.73 174.22C182.64 147.25 215.77 136.65 242.74 150.56C259.21 159.05 269.57 174.71 271.98 191.75C268.56 180.18 260.6 169.97 249.02 164C226.5 152.39 198.83 161.23 187.22 183.75C175.61 206.27 184.45 233.94 206.97 245.55C218.55 251.51 231.49 252.07 242.9 248.15Z" fill="#FFFFFF"/>
<path d="M112.58 237.08C99.53 196.66 105.64 150.72 133.03 114.11C177.89 54.14 262.86 41.9 322.82 86.76C382.78 131.62 395.03 216.59 350.17 276.55C322.78 313.16 280.44 331.98 237.98 330.88C267.54 327.28 295.65 312.08 314.9 286.34C352.36 236.27 342.14 165.33 292.07 127.87C242 90.41 171.06 100.63 133.6 150.7C114.34 176.45 107.69 207.71 112.58 237.08Z" fill="#FFFFFF"/>
</svg>
