<svg width="1673" height="508" viewBox="0 0 1673 508" fill="none" xmlns="http://www.w3.org/2000/svg">
<path d="M463.52 369.4C428.12 419.38 369.81 452 303.89 452C195.91 452 108.39 364.48 108.39 256.5C108.39 148.52 195.91 61 303.89 61C369.81 61 428.12 93.63 463.52 143.6C433.83 112.59 392 93.27 345.65 93.27C255.49 93.27 182.42 166.35 182.42 256.5C182.42 346.65 255.5 419.73 345.65 419.73C392 419.73 433.83 400.41 463.52 369.4Z" fill="#1E67B2"/>
<path d="M369.91 200.28C394.94 212.81 413.72 236.9 418.28 266.68C425.76 315.46 392.28 361.06 343.49 368.54C294.7 376.02 249.11 342.54 241.63 293.75C237.07 263.97 247.77 235.37 267.9 215.92C255.94 231.48 250.11 251.72 253.32 272.66C259.56 313.39 297.63 341.35 338.37 335.1C379.11 328.85 407.06 290.79 400.81 250.05C397.6 229.11 385.97 211.55 369.91 200.28Z" fill="#81BF41"/>
<path d="M351.29 309.15C336.01 317.08 317.24 317.72 300.78 309.23C273.81 295.32 263.21 262.19 277.12 235.22C291.03 208.25 324.16 197.65 351.13 211.56C367.6 220.05 377.96 235.71 380.37 252.75C376.95 241.18 368.99 230.97 357.41 225C334.89 213.39 307.22 222.23 295.61 244.75C284 267.27 292.84 294.94 315.36 306.55C326.94 312.51 339.88 313.07 351.29 309.15Z" fill="#81BF41"/>
<path d="M220.97 298.08C207.92 257.66 214.03 211.72 241.42 175.11C286.28 115.14 371.25 102.9 431.21 147.76C491.17 192.62 503.42 277.59 458.56 337.55C431.17 374.16 388.83 392.98 346.37 391.88C375.93 388.28 404.04 373.08 423.29 347.34C460.75 297.27 450.53 226.33 400.46 188.87C350.39 151.41 279.45 161.63 241.99 211.7C222.73 237.45 216.08 268.71 220.97 298.08Z" fill="#10BAB3"/>
<path d="M620.13 251.91C618.82 253 616.4 254.47 612.86 256.32C609.32 258.17 604.99 259.81 599.88 261.22C594.76 262.63 589.1 263.29 582.89 263.18C573.42 262.96 564.95 261.25 557.49 258.04C550.03 254.83 543.71 250.45 538.55 244.89C533.38 239.34 529.43 232.97 526.71 225.78C523.99 218.59 522.63 210.92 522.63 202.75C522.63 193.6 524.02 185.22 526.79 177.6C529.57 169.98 533.54 163.39 538.71 157.84C543.88 152.29 550.06 147.99 557.25 144.94C564.44 141.89 572.38 140.37 581.09 140.37C589.15 140.37 596.28 141.46 602.49 143.64C608.7 145.82 613.76 148.16 617.68 150.66L608.37 173.03C605.65 170.96 602.03 168.81 597.51 166.58C592.99 164.35 587.79 163.23 581.91 163.23C577.34 163.23 572.95 164.19 568.76 166.09C564.57 168 560.86 170.69 557.65 174.18C554.44 177.67 551.91 181.72 550.06 186.35C548.21 190.98 547.28 196.01 547.28 201.46C547.28 207.23 548.12 212.51 549.81 217.3C551.5 222.09 553.92 226.2 557.08 229.63C560.24 233.06 564.02 235.7 568.43 237.55C572.84 239.4 577.82 240.33 583.37 240.33C589.79 240.33 595.29 239.3 599.87 237.23C604.44 235.16 607.93 232.98 610.32 230.7L620.13 251.91Z" fill="#1E67B2"/>
<path d="M651.98 141.67H733.97V164.54H675.66V190.18H727.27V213.04H675.66V239.01H736.25V261.88H651.98V141.67Z" fill="#1E67B2"/>
<path d="M853.35 141.67L853.82 214.1L769.89 136.94H768.91V261.88H792.92L792.45 190.82L876.54 266.78H877.19V141.67H853.35Z" fill="#1E67B2"/>
<path d="M908.23 141.67H989.24V164.54H960V261.88H936.32V164.54H908.23V141.67Z" fill="#1E67B2"/>
<path d="M1112.7 261.88L1084.71 218.2C1088.55 216.03 1091.76 213.39 1094.33 210.27C1097.65 206.24 1100.05 201.78 1101.52 196.88C1102.99 191.98 1103.72 187.08 1103.72 182.18C1103.72 175.97 1102.68 170.39 1100.62 165.44C1098.55 160.49 1095.53 156.24 1091.56 152.7C1087.58 149.16 1082.66 146.44 1076.78 144.53C1070.9 142.63 1064.2 141.67 1056.69 141.67H1020.27V261.87H1043.95V223.65H1059.72L1085.11 261.87H1112.7V261.88ZM1043.94 164.54H1060.92C1065.06 164.54 1068.35 165.25 1070.8 166.66C1073.25 168.08 1075.07 169.82 1076.27 171.89C1077.47 173.96 1078.26 176 1078.64 178.02C1079.02 180.03 1079.21 181.69 1079.21 183C1079.21 184.74 1078.91 186.62 1078.31 188.64C1077.71 190.66 1076.73 192.59 1075.37 194.44C1074.01 196.29 1072.13 197.82 1069.73 199.01C1067.33 200.21 1064.34 200.81 1060.75 200.81H1043.93V164.54H1043.94Z" fill="#1E67B2"/>
<path d="M1140.47 141.67H1164.15V261.87H1140.47V141.67Z" fill="#1E67B2"/>
<path d="M1293.5 251.91C1292.19 253 1289.77 254.47 1286.23 256.32C1282.69 258.17 1278.36 259.81 1273.25 261.22C1268.13 262.63 1262.47 263.29 1256.26 263.18C1246.79 262.96 1238.32 261.25 1230.86 258.04C1223.4 254.83 1217.08 250.45 1211.91 244.89C1206.74 239.34 1202.79 232.97 1200.07 225.78C1197.35 218.59 1195.99 210.92 1195.99 202.75C1195.99 193.6 1197.38 185.22 1200.15 177.6C1202.93 169.98 1206.9 163.39 1212.07 157.84C1217.24 152.29 1223.42 147.99 1230.61 144.94C1237.8 141.89 1245.74 140.37 1254.45 140.37C1262.51 140.37 1269.64 141.46 1275.85 143.64C1282.06 145.82 1287.12 148.16 1291.04 150.66L1281.73 173.03C1279.01 170.96 1275.39 168.81 1270.87 166.58C1266.35 164.35 1261.15 163.23 1255.27 163.23C1250.7 163.23 1246.31 164.19 1242.12 166.09C1237.93 168 1234.22 170.69 1231.01 174.18C1227.8 177.67 1225.27 181.72 1223.42 186.35C1221.57 190.98 1220.64 196.01 1220.64 201.46C1220.64 207.23 1221.48 212.51 1223.17 217.3C1224.86 222.09 1227.28 226.2 1230.44 229.63C1233.6 233.06 1237.38 235.7 1241.79 237.55C1246.2 239.4 1251.18 240.33 1256.73 240.33C1263.15 240.33 1268.65 239.3 1273.22 237.23C1277.79 235.16 1281.28 232.98 1283.67 230.7L1293.5 251.91Z" fill="#1E67B2"/>
<path d="M1325.34 141.67H1349.02V261.87H1325.34V141.67Z" fill="#1E67B2"/>
<path d="M1380.05 141.67H1461.06V164.54H1431.83V261.88H1408.15V164.54H1380.06V141.67H1380.05Z" fill="#1E67B2"/>
<path d="M1562.81 141.67L1535.86 197.16L1508.26 141.67H1479.02L1523.28 224.48V261.88H1546.96V224.48L1592.04 141.67H1562.81Z" fill="#1E67B2"/>
<path d="M754.75 398.45L733.52 364.67C736.54 363.09 739.04 361.15 741.02 358.83C743.38 356.07 745.08 352.98 746.11 349.54C747.15 346.1 747.67 342.67 747.67 339.23C747.67 334.76 746.89 330.78 745.33 327.3C743.77 323.82 741.59 320.89 738.8 318.49C736 316.09 732.61 314.28 728.61 313.04C724.61 311.8 720.22 311.18 715.42 311.18H690.84V398.45H704.87V368.12H717.46C717.94 368.12 718.41 368.11 718.87 368.09L738.56 398.45H754.75ZM704.87 324.61H717.82C720.86 324.61 723.37 325.13 725.37 326.17C727.37 327.21 728.95 328.51 730.1 330.07C731.26 331.63 732.08 333.27 732.56 334.99C733.04 336.71 733.28 338.29 733.28 339.72C733.28 341.24 733.02 342.86 732.5 344.58C731.98 346.3 731.14 347.92 729.98 349.44C728.82 350.96 727.2 352.22 725.12 353.22C723.04 354.22 720.44 354.72 717.33 354.72H704.86V324.61H704.87Z" fill="#10BAB3"/>
<path d="M834.05 387.19C832.17 387.91 830.19 388.27 828.12 388.27C825.16 388.27 822.52 387.61 820.21 386.29C818.26 385.18 816.65 383.67 815.38 381.76L854.38 368.61C852.86 361.26 849.84 355.56 845.33 351.53C840.81 347.5 835.08 345.48 828.13 345.48C822.85 345.48 818.04 346.7 813.68 349.14C809.32 351.58 805.87 354.85 803.31 358.97C800.75 363.09 799.47 367.66 799.47 372.7C799.47 377.98 800.59 382.65 802.83 386.73C805.07 390.81 808.3 394 812.54 396.32C816.78 398.64 821.89 399.8 827.89 399.8C830.77 399.8 833.78 399.3 836.94 398.3C840.1 397.3 842.99 395.96 845.63 394.28L839.52 384.33C837.75 385.51 835.93 386.47 834.05 387.19ZM814.51 363.63C815.75 361.27 817.45 359.42 819.6 358.05C821.76 356.69 824.23 356.01 827.03 356.01C830.55 356.01 833.3 356.91 835.3 358.71C837.16 360.39 838.5 362.33 839.32 364.53L812.74 373.99C812.68 373.33 812.64 372.66 812.64 371.96C812.65 368.76 813.27 365.99 814.51 363.63Z" fill="#10BAB3"/>
<path d="M938.89 375.5C937.77 373.7 936.27 372.16 934.39 370.89C932.51 369.61 930.33 368.61 927.86 367.89C926.02 367.25 924.18 366.65 922.35 366.09C920.51 365.53 919.01 364.77 917.85 363.81C916.69 362.85 916.11 361.57 916.11 359.97C916.11 358.93 916.47 358.01 917.19 357.21C917.91 356.41 918.83 355.79 919.95 355.35C921.07 354.91 922.35 354.73 923.79 354.81C925.39 354.89 927.17 355.31 929.12 356.07C931.08 356.83 932.78 357.93 934.21 359.37L939.37 351.22C936.89 349.3 934.23 347.91 931.4 347.02C928.56 346.14 925.23 345.7 921.39 345.7C917.15 345.7 913.64 346.5 910.84 348.1C908.04 349.7 905.96 351.72 904.61 354.15C903.25 356.59 902.57 359.12 902.57 361.76C902.57 365.2 903.65 368.21 905.81 370.81C907.97 373.41 911.2 375.42 915.52 376.86C917.52 377.42 919.4 378 921.16 378.6C922.92 379.2 924.36 379.96 925.48 380.88C926.6 381.8 927.16 383.06 927.16 384.66C927.16 386.02 926.78 387.1 926.02 387.9C925.26 388.7 924.26 389.28 923.02 389.64C921.78 390 920.4 390.18 918.88 390.18C916.88 390.18 914.78 389.68 912.59 388.68C910.39 387.68 908.17 386.1 905.94 383.95L900.3 391.5C902.62 394.14 905.52 396.14 908.99 397.49C912.47 398.85 916.12 399.53 919.96 399.53C924.59 399.53 928.43 398.73 931.47 397.13C934.51 395.53 936.78 393.4 938.3 390.72C939.82 388.04 940.58 385.19 940.58 382.15C940.57 379.51 940.01 377.3 938.89 375.5Z" fill="#10BAB3"/>
<path d="M1022.98 387.19C1021.1 387.91 1019.12 388.27 1017.05 388.27C1014.09 388.27 1011.45 387.61 1009.14 386.29C1007.19 385.18 1005.58 383.67 1004.31 381.76L1043.31 368.61C1041.79 361.26 1038.77 355.56 1034.26 351.53C1029.74 347.5 1024.01 345.48 1017.06 345.48C1011.78 345.48 1006.97 346.7 1002.61 349.14C998.25 351.58 994.8 354.85 992.24 358.97C989.68 363.09 988.4 367.66 988.4 372.7C988.4 377.98 989.52 382.65 991.76 386.73C994 390.81 997.23 394 1001.47 396.32C1005.71 398.64 1010.82 399.8 1016.82 399.8C1019.7 399.8 1022.71 399.3 1025.87 398.3C1029.03 397.3 1031.92 395.96 1034.56 394.28L1028.45 384.33C1026.68 385.51 1024.86 386.47 1022.98 387.19ZM1003.44 363.63C1004.68 361.27 1006.38 359.42 1008.53 358.05C1010.69 356.69 1013.16 356.01 1015.96 356.01C1019.48 356.01 1022.23 356.91 1024.23 358.71C1026.09 360.39 1027.43 362.33 1028.25 364.53L1001.67 373.99C1001.61 373.33 1001.57 372.66 1001.57 371.96C1001.59 368.76 1002.2 365.99 1003.44 363.63Z" fill="#10BAB3"/>
<path d="M1134.41 347.74L1133.44 354.64C1131.79 352.3 1129.59 350.22 1126.8 348.4C1123.8 346.44 1119.86 345.46 1114.99 345.46C1110.43 345.46 1106.22 346.58 1102.34 348.82C1098.46 351.06 1095.34 354.24 1092.99 358.35C1090.63 362.47 1089.45 367.4 1089.45 373.16C1089.45 378.99 1090.57 383.89 1092.81 387.85C1095.05 391.81 1098.1 394.78 1101.98 396.78C1105.86 398.78 1110.15 399.78 1114.87 399.78C1117.91 399.78 1120.56 399.34 1122.84 398.46C1125.12 397.58 1127.1 396.5 1128.77 395.22C1130.45 393.94 1131.79 392.76 1132.79 391.68C1132.99 391.47 1133.16 391.27 1133.33 391.08V398.45H1146.76V347.74H1134.41ZM1130.34 383.71C1128.98 385.31 1127.3 386.55 1125.31 387.43C1123.31 388.31 1121.07 388.75 1118.6 388.75C1115.88 388.75 1113.33 388.03 1110.93 386.59C1108.53 385.15 1106.61 383.19 1105.18 380.72C1103.74 378.24 1103.02 375.49 1103.02 372.45C1103.02 369.33 1103.72 366.58 1105.12 364.18C1106.52 361.78 1108.36 359.9 1110.63 358.55C1112.9 357.2 1115.44 356.51 1118.24 356.51C1120.72 356.51 1122.97 356.95 1125.01 357.83C1127.05 358.71 1128.79 359.93 1130.23 361.49C1131.67 363.05 1132.71 364.87 1133.35 366.94V377.97C1132.7 380.19 1131.7 382.11 1130.34 383.71Z" fill="#10BAB3"/>
<path d="M1228.82 347.26C1226.14 348.46 1223.55 350.14 1221.03 352.3C1218.67 354.32 1216.82 356.74 1215.48 359.54L1214.5 347.74H1202.39V398.45H1215.7V376.63C1215.7 373.51 1216.5 370.54 1218.1 367.7C1219.7 364.86 1221.92 362.6 1224.75 360.93C1227.59 359.25 1230.92 358.57 1234.76 358.89L1235.36 345.46C1233.68 345.47 1231.5 346.06 1228.82 347.26Z" fill="#10BAB3"/>
<path d="M1314.72 387.85C1313.04 388.45 1311.16 388.75 1309.09 388.75C1305.97 388.75 1303.23 388.05 1300.88 386.65C1298.52 385.25 1296.66 383.35 1295.31 380.95C1293.95 378.55 1293.27 375.91 1293.27 373.04C1293.27 370 1293.91 367.31 1295.19 364.95C1296.47 362.59 1298.23 360.74 1300.47 359.37C1302.71 358.01 1305.14 357.33 1307.78 357.33C1310.42 357.33 1312.76 357.79 1314.79 358.71C1316.83 359.63 1318.49 360.61 1319.77 361.65L1326.36 352.9C1324.04 350.9 1321.25 349.32 1317.97 348.17C1314.69 347.01 1310.9 346.43 1306.58 346.43C1302.02 346.43 1297.69 347.49 1293.57 349.61C1289.45 351.73 1286.14 354.79 1283.62 358.78C1281.1 362.78 1279.84 367.53 1279.84 373.05C1279.84 378.56 1281.02 383.3 1283.38 387.26C1285.74 391.21 1289.03 394.29 1293.27 396.49C1297.5 398.69 1302.42 399.79 1308.02 399.79C1311.3 399.79 1314.55 399.25 1317.79 398.17C1321.03 397.09 1323.76 395.63 1326 393.79L1319.29 385.4C1317.91 386.43 1316.4 387.25 1314.72 387.85Z" fill="#10BAB3"/>
<path d="M1421.9 349.78C1418.78 346.98 1414.83 345.58 1410.03 345.58C1405.24 345.58 1401.12 346.64 1397.68 348.76C1394.39 350.79 1391.88 353.35 1390.13 356.44V304.94H1376.94V398.45H1390.37V375.91C1390.37 372.31 1390.99 369.1 1392.23 366.26C1393.47 363.42 1395.17 361.17 1397.32 359.49C1399.48 357.81 1401.92 356.97 1404.63 356.97C1407.59 357.05 1409.74 357.87 1411.1 359.43C1412.46 360.99 1413.18 363.05 1413.26 365.6V398.45H1426.69V360.81C1426.61 356.26 1425.01 352.58 1421.9 349.78Z" fill="#10BAB3"/>
</svg>
